# xmcd CD database file
#
# Track frame offsets:
#	150
#	12202
#	23802
#	34122
#	46212
#	61005
#	76030
#	86567
#	101655
#	110710
#	121725
#	134202
#	148512
#	159292
#	173130
#
# Disc length: 2485 seconds
#
# Revision: 1
# Processed by: cddbd v1.5.2PL0 Copyright (c) Steve Scherf et al.
# Submitted via: CDex 1.70beta2
#
DISCID=b809b30f
DTITLE=The Vandals - Look What I Almost Stepped In...
DYEAR=2000
DGENRE=Punk Rock
TTITLE0=Behind The Music
TTITLE1=Sorry, Mom And Dad
TTITLE2=GO
TTITLE3=The New You
TTITLE4=Flower Are Pretty
TTITLE5=Jackass
TTITLE6=What About Me?
TTITLE7=You're Not The Boss Of Me (Kick It)
TTITLE8=I'm The Boss Of Me
TTITLE9=That's My Girl
TTITLE10=Get A Room
TTITLE11=San Berdu
TTITLE12=Crippled and Blind
TTITLE13=Fourteen
TTITLE14=S.W.M. [Bonus Track]
EXTD=YEAR: 2000
EXTT0=
EXTT1=
EXTT2=
EXTT3=
EXTT4=
EXTT5=
EXTT6=
EXTT7=
EXTT8=
EXTT9=
EXTT10=
EXTT11=
EXTT12=
EXTT13=
EXTT14=
PLAYORDER=
